<?xml version="1.0" encoding="utf-8"?>
<!-- Generator: Adobe Illustrator 17.0.0, SVG Export Plug-In . SVG Version: 6.00 Build 0)  -->
<!DOCTYPE svg PUBLIC "-//W3C//DTD SVG 1.1//EN" "http://www.w3.org/Graphics/SVG/1.1/DTD/svg11.dtd">
<svg version="1.1" id="Calque_1" xmlns="http://www.w3.org/2000/svg" xmlns:xlink="http://www.w3.org/1999/xlink" x="0px" y="0px"
	 width="807px" height="382px" viewBox="0 0 807 382" enable-background="new 0 0 807 382" xml:space="preserve">
<g opacity="0.5">
	<path fill="#E7CF09" d="M36.184,189.893c0.301-0.24,0.629-0.452,0.9-0.723c27.562-27.554,55.115-55.117,82.699-82.649
		c0.885-0.883,1.998-1.665,3.152-2.123c1.871-0.743,3.741-0.311,5.244,1.021c1.673,1.484,3.222,3.109,4.814,4.684
		c1.505,1.489,2.997,2.992,4.493,4.49c3.186,3.189,3.193,6.345,0.014,9.524c-23.652,23.653-47.304,47.306-70.964,70.951
		c-0.277,0.277-0.653,0.453-0.983,0.676c-0.001,0.15-0.002,0.301-0.003,0.451c0.331,0.222,0.708,0.397,0.985,0.674
		c23.638,23.624,47.272,47.251,70.884,70.9c0.787,0.789,1.549,1.712,1.987,2.719c0.891,2.05,0.577,4.107-0.942,5.754
		c-2.224,2.412-4.587,4.697-6.903,7.023c-1.082,1.087-2.141,2.206-3.304,3.201c-2.181,1.864-5.131,1.843-7.341,0.032
		c-0.426-0.349-0.826-0.734-1.216-1.124c-27.538-27.534-55.074-55.071-82.615-82.604c-0.271-0.271-0.599-0.484-0.901-0.724
		C36.184,197.996,36.184,193.944,36.184,189.893z"/>
	<path fill="#E7CF09" d="M366.184,202.047c-0.301,0.24-0.629,0.452-0.9,0.723c-27.562,27.554-55.115,55.117-82.699,82.649
		c-0.885,0.883-1.998,1.665-3.152,2.123c-1.871,0.743-3.742,0.312-5.244-1.022c-1.695-1.506-3.265-3.153-4.879-4.749
		c-1.505-1.489-2.997-2.992-4.493-4.49c-3.095-3.101-3.103-6.303-0.013-9.393c23.673-23.675,47.347-47.349,71.026-71.019
		c0.277-0.277,0.616-0.493,1.22-0.969c-0.562-0.378-0.939-0.553-1.216-0.83c-23.638-23.624-47.272-47.251-70.884-70.9
		c-0.787-0.789-1.549-1.712-1.987-2.719c-0.891-2.05-0.577-4.107,0.942-5.754c2.224-2.412,4.587-4.697,6.903-7.023
		c1.082-1.087,2.141-2.206,3.304-3.201c2.181-1.864,5.131-1.843,7.341-0.032c0.426,0.349,0.826,0.734,1.216,1.124
		c27.538,27.534,55.074,55.071,82.615,82.604c0.271,0.271,0.599,0.484,0.901,0.724C366.184,193.944,366.184,197.996,366.184,202.047
		z"/>
	<path fill="#E7CF09" d="M155.169,313.37c0.204-0.893,0.363-1.798,0.617-2.676c9.241-32.01,18.492-64.018,27.74-96.027
		c13.463-46.598,26.927-93.196,40.377-139.798c0.624-2.164,1.587-4.061,3.825-4.829c0.994-0.341,2.214-0.502,3.215-0.262
		c3.935,0.944,7.839,2.026,11.724,3.161c3.529,1.031,5.121,4.113,4.079,7.734c-3.342,11.616-6.701,23.228-10.056,34.841
		c-14.955,51.756-29.911,103.512-44.865,155.269c-4.445,15.385-8.898,30.768-13.318,46.159c-0.618,2.154-1.541,3.997-3.716,4.954
		c-1.111,0.489-2.249,0.614-3.414,0.3c-3.879-1.045-7.762-2.079-11.626-3.178C157.003,318.238,155.268,315.992,155.169,313.37z"/>
</g>
</svg>
