<?xml version="1.0" encoding="utf-8"?>
<!-- Generator: Adobe Illustrator 17.0.0, SVG Export Plug-In . SVG Version: 6.00 Build 0)  -->
<!DOCTYPE svg PUBLIC "-//W3C//DTD SVG 1.1//EN" "http://www.w3.org/Graphics/SVG/1.1/DTD/svg11.dtd">
<svg version="1.1" id="Calque_1" xmlns="http://www.w3.org/2000/svg" xmlns:xlink="http://www.w3.org/1999/xlink" x="0px" y="0px"
	 width="807px" height="382px" viewBox="0 0 807 382" enable-background="new 0 0 807 382" xml:space="preserve">
<g>
	<path fill="#E7CF09" d="M425.383,277.917c0-13.833,0-27.667,0-41.5c0.425-1.728,0.971-3.436,1.258-5.187
		c4.242-25.858,7.337-51.967,12.978-77.515c5.633-25.51,15.256-49.83,33.152-69.743c11.277-12.548,25.308-20.894,42.581-18.741
		c10.938,1.364,21.818,5.231,32.087,9.505c21.997,9.156,44.529,12.014,67.548,6.44c11.739-2.843,22.837-8.319,34.243-12.557
		c19.844-7.374,38.655-5.105,54.05,9.398c9.031,8.507,16.841,19.038,22.762,29.979c16.107,29.762,22.462,62.605,27.157,95.765
		c1.538,10.865,2.798,21.769,4.184,32.655c0,13.833,0,27.667,0,41.5c-1.774,5.385-3.227,10.903-5.385,16.13
		c-5.621,13.614-15.389,19.804-30.017,19.867c-15.105,0.065-25.585-7.932-33.895-19.41c-6.202-8.566-11.744-17.607-17.781-26.296
		c-10.554-15.189-24.861-23.524-43.674-23.453c-24.409,0.091-48.819,0.022-73.227,0.22c-14.946,0.121-27.33,6.231-36.559,17.851
		c-6.136,7.725-11.158,16.324-17.038,24.265c-4.5,6.077-8.916,12.459-14.49,17.454c-20.468,18.344-48.351,10.483-56.655-15.593
		C427.497,285.296,426.472,281.596,425.383,277.917z M522.524,120.449c-22.805-0.108-41.467,18.279-41.574,40.96
		c-0.108,22.805,18.28,41.467,40.96,41.574c22.805,0.108,41.467-18.28,41.574-40.96
		C563.592,139.219,545.205,120.556,522.524,120.449z M674.139,134.041c-0.006-7.407-6.19-13.584-13.596-13.58
		c-7.407,0.004-13.585,6.188-13.583,13.593c0.002,7.387,6.21,13.59,13.596,13.585C667.943,147.635,674.145,141.426,674.139,134.041z
		 M632.75,148.127c-7.415,0.079-13.534,6.319-13.456,13.721c0.078,7.414,6.318,13.535,13.72,13.458
		c7.398-0.077,13.539-6.339,13.459-13.724C646.393,154.168,640.152,148.049,632.75,148.127z M688.221,148.127
		c-7.406-0.003-13.589,6.176-13.594,13.583c-0.004,7.406,6.173,13.591,13.58,13.596c7.386,0.006,13.595-6.196,13.599-13.582
		C701.81,154.338,695.607,148.13,688.221,148.127z M660.679,175.794c-7.402-0.076-13.641,6.045-13.718,13.46
		c-0.077,7.402,6.044,13.641,13.458,13.719c7.375,0.077,13.645-6.075,13.721-13.462C674.215,182.109,668.093,175.87,660.679,175.794
		z"/>
	<path fill="#FCEE21" d="M522.524,120.449c22.681,0.107,41.068,18.77,40.96,41.574c-0.107,22.681-18.77,41.068-41.574,40.96
		c-22.681-0.107-41.068-18.77-40.96-41.574C481.056,138.729,499.719,120.342,522.524,120.449z M522.482,137.506
		c-13.756-0.119-24.205,9.956-24.476,23.599c-0.28,14.049,9.997,24.702,23.944,24.823c13.744,0.119,24.206-9.968,24.477-23.6
		C546.707,148.282,536.428,137.626,522.482,137.506z"/>
</g>
</svg>
