<?xml version="1.0" encoding="utf-8"?>
<!-- Generator: Adobe Illustrator 17.0.0, SVG Export Plug-In . SVG Version: 6.00 Build 0)  -->
<!DOCTYPE svg PUBLIC "-//W3C//DTD SVG 1.1//EN" "http://www.w3.org/Graphics/SVG/1.1/DTD/svg11.dtd">
<svg version="1.1" id="Calque_1" xmlns="http://www.w3.org/2000/svg" xmlns:xlink="http://www.w3.org/1999/xlink" x="0px" y="0px"
	 width="807px" height="382px" viewBox="0 0 807 382" enable-background="new 0 0 807 382" xml:space="preserve">
<g opacity="0.5">
	<g>
		<path fill="#E7CF09" d="M773.607,305.008c-9.459-3.908-17.239-9.971-16.691-21.731c0.548-11.687-8.364-19.43-8.364-19.43
			s7.816-25.603,0.548-46.749c-7.232-21.183-31.154-55.076-49.525-80.679c-18.298-25.603-2.739-55.076-19.43-92.914
			c-16.727-37.765-60.117-35.573-83.491-19.43c-23.411,16.107-16.18,56.172-15.047,75.128c1.096,18.882,0.511,32.359-1.643,37.253
			c-2.228,4.894-17.239,22.827-27.246,37.838c-10.007,15.011-17.239,46.165-24.507,58.948c-7.232,12.82-2.228,24.47-2.228,24.47
			s-5.004,1.644-8.912,10.044c-3.908,8.291-11.651,12.199-25.566,14.938c-13.915,2.776-13.915,11.724-10.592,21.768
			c3.36,9.971,0,15.595-3.908,28.378c-3.908,12.783,15.559,16.691,34.478,18.882c18.919,2.264,40.066,14.5,57.889,16.691
			c17.787,2.228,23.375-12.235,23.375-12.235s20.015-4.456,41.125-5.004c21.147-0.584,41.125,4.419,41.125,4.419
			s3.908,8.912,11.139,12.783c7.268,3.908,22.827,4.456,32.834-6.099c10.007-10.592,36.742-23.922,51.716-32.25
			C785.842,321.626,783.067,308.843,773.607,305.008z M643.403,59.648c9.569,0,17.239,9.459,17.239,21.11
			c0,8.291-3.871,15.413-9.532,18.882c-1.424-0.657-2.922-1.242-4.529-1.972c3.397-1.68,5.807-6.026,5.807-11.066
			c0-6.574-4.091-11.906-9.094-11.906c-4.967,0-9.058,5.369-9.058,11.906c0,2.447,0.584,4.748,1.57,6.684
			c-2.958-1.169-5.698-2.301-7.852-3.068c-1.132-2.812-1.826-6.063-1.826-9.496C626.164,69.107,633.871,59.648,643.403,59.648z
			 M642.161,104.206c4.748,1.644,10.08,4.748,9.532,7.816c-0.584,3.068-3.068,3.068-9.532,7.049
			c-6.465,3.908-20.453,12.6-24.945,13.148c-4.492,0.584-7.012-1.972-11.76-5.04c-4.748-3.068-13.733-10.409-11.468-14.317
			c0,0,6.976-5.369,10.044-8.145c3.068-2.812,10.957-9.532,15.705-8.656C624.484,96.865,637.413,102.526,642.161,104.206z
			 M599.174,63.008c7.524,0,13.623,8.948,13.623,20.015c0,2.045-0.219,3.908-0.584,5.734c-1.826,0.657-3.689,1.644-5.515,3.141
			c-0.913,0.767-1.717,1.461-2.52,2.155c1.169-2.228,1.68-5.405,1.132-8.765c-0.986-6.063-5.04-10.446-9.021-9.788
			c-3.981,0.694-6.355,6.099-5.369,12.199c1.023,6.099,5.04,10.482,9.021,9.788c0.219-0.037,0.438-0.11,0.694-0.183
			c-1.936,1.863-3.725,3.47-5.552,4.821c-5.515-2.557-9.569-10.153-9.569-19.138C585.587,71.956,591.65,63.008,599.174,63.008z
			 M584.492,344.088c-1.79,7.962-11.139,13.769-11.139,13.769c-8.473,2.63-32.031-7.56-42.659-12.016
			c-10.665-4.419-37.765-5.807-41.344-9.752c-3.543-4.054,1.79-12.929,3.141-21.329c1.315-8.473-2.63-13.769-1.351-19.576
			c1.351-5.771,18.663-5.771,25.31-9.752c6.684-4.018,7.998-15.559,13.331-18.663c5.332-3.141,15.084,7.962,19.101,14.244
			c4.018,6.172,19.102,32.871,25.31,39.518C580.511,327.178,586.245,336.126,584.492,344.088z M682.884,266.586
			c-1.607,7.852-1.607,36.158-1.607,36.158s-17.239,23.886-43.974,27.794c-26.698,3.908-40.066,1.096-40.066,1.096l-15.011-17.239
			c0,0,11.651-1.68,10.007-13.367c-1.68-11.651-35.61-27.83-41.709-42.293c-6.099-14.463-1.096-38.97,6.684-51.205
			c7.779-12.235,12.783-38.933,20.562-47.845c7.816-8.875,13.879-27.794,11.139-36.121c0,0,16.691,20.051,28.378,16.691
			c11.651-3.36,37.838-22.827,41.709-19.467c3.908,3.36,37.29,76.771,40.577,100.146c3.36,23.375-2.228,41.125-2.228,41.125
			S684.528,258.77,682.884,266.586z M768.275,318.997c-5.186,4.748-34.112,16.472-42.768,25.53
			c-8.619,9.058-19.905,16.399-26.808,14.244c-6.939-2.191-13.002-11.651-9.934-25.529c2.995-13.806,5.625-28.926,5.186-37.582
			c-0.438-8.656-2.191-20.343,0-22.06c2.155-1.68,5.588-0.84,5.588-0.84s-1.68,16.399,8.218,20.745
			c9.898,4.31,24.178-1.717,28.524-6.099c4.346-4.31,7.378-10.774,7.378-10.774s4.31,2.191,3.908,9.094
			c-0.438,6.903,2.995,16.874,9.532,20.307C763.49,309.464,773.461,314.212,768.275,318.997z"/>
	</g>
</g>
</svg>
